<svg width="80" height="65" viewBox="0 0 80 65" fill="none" xmlns="http://www.w3.org/2000/svg">
<path d="M27.039 23.8307C25.9894 21.6013 25.4646 19.4893 25.4646 17.4947C25.4646 15.4413 25.727 13.564 26.2518 11.8627C26.7766 10.1027 27.6512 8.40133 28.8758 6.75866C30.1003 5.05733 31.8205 3.64933 34.0363 2.53466C37.0685 0.950662 40.7129 0.158661 44.9696 0.158661C50.5675 0.158661 55.8738 1.59599 60.8886 4.47066C67.4777 8.22533 72.0551 13.4173 74.6208 20.0467C76.0786 23.684 76.8075 27.5853 76.8075 31.7507C76.8075 41.548 73.2797 49.4387 66.224 55.4227C59.2267 61.4067 50.0718 64.3987 38.7595 64.3987C27.5054 64.3987 18.3214 61.4067 11.2075 55.4227C4.15185 49.4387 0.624023 41.5773 0.624023 31.8387C0.624023 24.564 2.66491 18.2573 6.74669 12.9187C10.8868 7.52133 16.4555 3.85466 23.4528 1.91866L23.9776 2.71066C21.0038 5.23333 18.7588 8.92933 17.2427 13.7987C15.7266 18.668 14.9686 23.9187 14.9686 29.5507C14.9686 39.0547 17.1552 46.6227 21.5286 52.2547C25.9019 57.8867 31.6164 60.7027 38.672 60.7027C45.786 60.7027 51.5005 58.0627 55.8155 52.7827C60.1888 47.444 62.3755 40.404 62.3755 31.6627C62.3755 26.3827 61.5591 21.6307 59.9264 17.4067C58.352 13.124 56.0487 9.83866 53.0166 7.55066C49.9844 5.20399 46.6023 4.03066 42.8704 4.03066C38.7303 4.03066 35.3774 5.116 32.8118 7.28666C29.1965 10.396 27.3888 14.356 27.3888 19.1667C27.3888 20.692 27.5929 22.2467 28.0011 23.8307H27.039Z" fill="url(#paint0_linear_14_13)"/>
<path d="M79.4897 62.14C76.4576 63.6653 73.231 64.428 69.8101 64.428C66.7779 64.428 64.0178 63.9587 61.5299 63.02C56.1653 61.0253 51.5975 57.1337 47.8268 51.3453C46.855 49.9373 45.0474 47.2387 42.4039 43.2493C39.7604 39.26 38.05 36.7177 37.2725 35.6227C35.9118 33.4716 34.8234 32.2983 34.0071 32.1027V31.516C34.0459 31.516 34.0849 31.516 34.1237 31.516C34.2015 31.516 34.2791 31.516 34.3569 31.516C34.4348 31.516 34.5124 31.516 34.5902 31.516C34.668 31.516 34.7651 31.516 34.8817 31.516C34.9984 31.516 35.0955 31.516 35.1733 31.516C37.1559 31.516 38.983 31.0663 40.6545 30.1667C43.1814 28.7587 44.4448 26.1577 44.4448 22.364C44.4448 19.5871 43.6672 17.4556 42.1123 15.9693C40.5574 14.444 38.6915 13.6813 36.5145 13.6813H32.0828V47.884C32.0828 48.901 32.4522 49.781 33.1907 50.524C33.9293 51.228 34.8039 51.58 35.8147 51.58H36.5728V52.1667H18.8462V51.58H19.6042C20.576 51.58 21.4314 51.228 22.1699 50.524C22.9085 49.82 23.2973 48.9596 23.3361 47.9427V15.3827C23.2973 14.3657 22.9085 13.5053 22.1699 12.8013C21.4702 12.0583 20.615 11.6867 19.6042 11.6867H18.8462V11.1H38.8469C43.8617 11.1 47.749 12.2537 50.5091 14.5613C52.6861 16.3604 53.7745 18.9027 53.7745 22.188C53.7745 25.4733 52.7054 28.1524 50.5674 30.2253C48.4682 32.2591 46.058 33.276 43.3369 33.276C43.1036 33.276 42.8509 33.2564 42.5788 33.2173C44.1727 34.0777 45.4944 35.036 46.544 36.092C47.6324 37.148 48.5654 38.1453 49.3429 39.084C50.1593 40.0227 50.8395 40.8636 51.3838 41.6067C51.9669 42.3107 52.7249 43.269 53.6579 44.4813C54.5909 45.6547 55.5627 46.8867 56.5735 48.1773C57.5843 49.468 58.6922 50.7977 59.8972 52.1667C61.1412 53.4964 62.5017 54.7676 63.979 55.98C65.4951 57.1924 67.0307 58.1897 68.5856 58.972C71.8898 60.6537 75.5246 61.5143 79.4897 61.5533V62.14Z" fill="url(#paint1_linear_14_13)"/>
<defs>
<linearGradient id="paint0_linear_14_13" x1="28.0667" y1="-23" x2="28.0667" y2="39.3333" gradientUnits="userSpaceOnUse">
<stop stop-color="#2563EB"/>
<stop offset="1" stop-color="#7C3AED"/>
</linearGradient>
<linearGradient id="paint1_linear_14_13" x1="46.2889" y1="-4.66666" x2="46.2889" y2="57.6667" gradientUnits="userSpaceOnUse">
<stop stop-color="#2563EB"/>
<stop offset="1" stop-color="#7C3AED"/>
</linearGradient>
</defs>
</svg>
